<svg width="24" height="24" viewBox="0 0 24 24" fill="none" xmlns="http://www.w3.org/2000/svg">
<path d="M12 24C18.612 24 24 18.612 24 12C24 5.388 18.612 2.71623e-07 12 -3.06417e-07C5.388 -8.84456e-07 2.36977e-06 5.388 1.79173e-06 12C1.21369e-06 18.612 5.388 24 12 24ZM8.652 11.364L12.888 7.128C13.068 6.948 13.296 6.864 13.524 6.864C13.752 6.864 13.98 6.948 14.16 7.128C14.508 7.476 14.508 8.052 14.16 8.4L10.56 12L14.16 15.6C14.508 15.948 14.508 16.524 14.16 16.872C13.812 17.22 13.236 17.22 12.888 16.872L8.652 12.636C8.292 12.288 8.292 11.712 8.652 11.364Z" fill="#45A29E"/>
</svg>
