<svg width="34" height="34" viewBox="0 0 34 34" fill="none" xmlns="http://www.w3.org/2000/svg">
<path d="M17 18.5C20.7266 18.5 23.75 15.4766 23.75 11.75C23.75 8.02344 20.7266 5 17 5C13.2734 5 10.25 8.02344 10.25 11.75C10.25 15.4766 13.2734 18.5 17 18.5ZM23 20H20.4172C19.3766 20.4781 18.2188 20.75 17 20.75C15.7813 20.75 14.6281 20.4781 13.5828 20H11C7.68594 20 5 22.6859 5 26V26.75C5 27.9922 6.00781 29 7.25 29H26.75C27.9922 29 29 27.9922 29 26.75V26C29 22.6859 26.3141 20 23 20Z" fill="#1ABDB1"/>
<rect x="0.5" y="0.5" width="33" height="33" rx="4.5" stroke="#1ABDB1"/>
</svg>
