<svg width="22" height="24" viewBox="0 0 22 24" fill="none" xmlns="http://www.w3.org/2000/svg">
<path d="M21.2278 4.44073C19.4315 4.2622 17.6351 4.12831 15.8276 4.02789V4.01674L15.5821 2.56625C15.4147 1.53975 15.1693 0 12.5584 0H9.6351C7.03535 0 6.78988 1.4728 6.61136 2.55509L6.37705 3.98326C5.33939 4.05021 4.30173 4.11716 3.26408 4.21757L0.987926 4.44073C0.519307 4.48536 0.184579 4.89819 0.229209 5.35565C0.27384 5.81311 0.675513 6.14784 1.14413 6.10321L3.42028 5.88006C9.2669 5.29986 15.1581 5.52301 21.0716 6.11437H21.1609C21.5849 6.11437 21.9531 5.7908 21.9977 5.35565C22.0312 4.89819 21.6965 4.48536 21.2278 4.44073Z" fill="#E53939"/>
<path d="M19.1748 7.68759C18.9071 7.40865 18.5389 7.25244 18.1595 7.25244H4.05636C3.677 7.25244 3.29764 7.40865 3.04101 7.68759C2.78439 7.96653 2.63934 8.34589 2.66166 8.7364L3.35343 20.1841C3.47616 21.8801 3.63237 24 7.52637 24H14.6895C18.5835 24 18.7398 21.8912 18.8624 20.1841L19.5542 8.74756C19.5765 8.34589 19.4315 7.96653 19.1748 7.68759ZM12.9601 18.41H9.24459C8.78718 18.41 8.40782 18.0307 8.40782 17.5732C8.40782 17.1158 8.78718 16.7364 9.24459 16.7364H12.9601C13.4175 16.7364 13.7969 17.1158 13.7969 17.5732C13.7969 18.0307 13.4175 18.41 12.9601 18.41ZM13.8973 13.947H8.31856C7.8611 13.947 7.48174 13.5676 7.48174 13.1102C7.48174 12.6527 7.8611 12.2734 8.31856 12.2734H13.8973C14.3548 12.2734 14.7341 12.6527 14.7341 13.1102C14.7341 13.5676 14.3548 13.947 13.8973 13.947Z" fill="#E53939"/>
</svg>
