<svg width="31" height="32" viewBox="0 0 31 32" fill="none" xmlns="http://www.w3.org/2000/svg">
<path d="M21.2795 0.33677C20.6235 -0.31923 19.4875 0.12877 19.4875 1.04077V6.62477C19.4875 8.96077 21.4715 10.8968 23.8875 10.8968C25.4075 10.9128 27.5195 10.9128 29.3275 10.9128C30.2395 10.9128 30.7195 9.84077 30.0795 9.20077C27.7755 6.88077 23.6475 2.70477 21.2795 0.33677Z" fill="#45A29E"/>
<path d="M28.8 13.104H24.176C20.384 13.104 17.296 10.016 17.296 6.224V1.6C17.296 0.72 16.576 0 15.696 0H8.912C3.984 0 0 3.2 0 8.912V23.088C0 28.8 3.984 32 8.912 32H21.488C26.416 32 30.4 28.8 30.4 23.088V14.704C30.4 13.824 29.68 13.104 28.8 13.104ZM14.4 25.2H8C7.344 25.2 6.8 24.656 6.8 24C6.8 23.344 7.344 22.8 8 22.8H14.4C15.056 22.8 15.6 23.344 15.6 24C15.6 24.656 15.056 25.2 14.4 25.2ZM17.6 18.8H8C7.344 18.8 6.8 18.256 6.8 17.6C6.8 16.944 7.344 16.4 8 16.4H17.6C18.256 16.4 18.8 16.944 18.8 17.6C18.8 18.256 18.256 18.8 17.6 18.8Z" fill="#45A29E"/>
</svg>
