<svg width="25" height="24" viewBox="0 0 25 24" fill="none" xmlns="http://www.w3.org/2000/svg">
<path d="M17.2617 0.0010376H7.2007C2.83052 0.0010376 0.22522 2.60481 0.22522 6.97243V17.0156C0.22522 21.3952 2.83052 23.999 7.2007 23.999H17.2497C21.6199 23.999 24.2252 21.3952 24.2252 17.0276V6.97243C24.2372 2.60481 21.6319 0.0010376 17.2617 0.0010376ZM10.9706 18.6114C10.6224 18.9594 9.96207 19.2954 9.48183 19.3674L6.52836 19.7873C6.42031 19.7993 6.31225 19.8113 6.2042 19.8113C5.71195 19.8113 5.25573 19.6433 4.93156 19.3194C4.53537 18.9234 4.36728 18.3475 4.46333 17.7115L4.88354 14.7598C4.95558 14.2678 5.27974 13.6199 5.63992 13.2719L10.9946 7.92035C11.0906 8.17233 11.1867 8.42431 11.3187 8.71228C11.4388 8.96426 11.5709 9.22824 11.7149 9.46822C11.835 9.6722 11.9671 9.86418 12.0751 10.0082C12.2072 10.2122 12.3633 10.4041 12.4593 10.5121C12.5193 10.5961 12.5674 10.6561 12.5914 10.6801C12.8915 11.0401 13.2397 11.3761 13.5399 11.628C13.6239 11.712 13.6719 11.76 13.6959 11.772C13.876 11.916 14.0561 12.06 14.2122 12.168C14.4043 12.312 14.5964 12.444 14.8005 12.552C15.0406 12.6959 15.3047 12.8279 15.5689 12.9599C15.845 13.0799 16.0971 13.1879 16.3493 13.2719L10.9706 18.6114ZM18.6784 10.9081L17.5739 12.024C17.5018 12.096 17.4058 12.132 17.3097 12.132C17.2737 12.132 17.2257 12.132 17.2017 12.12C14.7645 11.4241 12.8195 9.48022 12.1231 7.04443C12.0871 6.91244 12.1231 6.76845 12.2192 6.68446L13.3358 5.56856C15.1607 3.74471 16.9015 3.78071 18.6904 5.56856C19.6029 6.48048 20.0471 7.3564 20.0471 8.26832C20.0351 9.13225 19.5909 9.99617 18.6784 10.9081Z" fill="#45A29E"/>
</svg>
